<?xml version="1.0" standalone="no"?>
<!DOCTYPE svg PUBLIC "-//W3C//DTD SVG 1.1//EN" "http://www.w3.org/Graphics/SVG/1.1/DTD/svg11.dtd" >
<svg xmlns="http://www.w3.org/2000/svg">
<metadata>Generated by IcoMoon</metadata>
<defs>
<font id="icomoon" horiz-adv-x="1024">
<font-face units-per-em="1024" ascent="960" descent="-64" />
<missing-glyph horiz-adv-x="1024" />
<glyph unicode="&#x20;" horiz-adv-x="512" d="" />
<glyph unicode="&#xe600;" glyph-name="location" horiz-adv-x="640" d="M320 960c-177 0-320-143-320-320s160-416 320-704c160 288 320 527 320 704s-143 320-320 320zM320 512c-71 0-128 57-128 128s57 128 128 128 128-57 128-128-57-128-128-128z" />
<glyph unicode="&#xe601;" glyph-name="youtube" d="M731.429 438.857q0 21.143-17.143 30.857l-292.571 182.857q-17.714 11.429-37.143 1.143-18.857-10.286-18.857-32v-365.714q0-21.714 18.857-32 9.143-4.571 17.714-4.571 11.429 0 19.429 5.714l292.571 182.857q17.143 9.714 17.143 30.857zM1024 438.857q0-54.857-0.571-85.714t-4.857-78-12.857-84.286q-9.143-41.714-39.429-70.286t-70.857-33.143q-126.857-14.286-383.429-14.286t-383.429 14.286q-40.571 4.571-71.143 33.143t-39.714 70.286q-8 37.143-12.286 84.286t-4.857 78-0.571 85.714 0.571 85.714 4.857 78 12.857 84.286q9.143 41.714 39.429 70.286t70.857 33.143q126.857 14.286 383.429 14.286t383.429-14.286q40.571-4.571 71.143-33.143t39.714-70.286q8-37.143 12.286-84.286t4.857-78 0.571-85.714z" />
<glyph unicode="&#xe602;" glyph-name="menu" d="M128 170.667h768v85.333h-768v-85.333zM128 384h768v85.333h-768v-85.333zM128 682.667v-85.333h768v85.333h-768z" />
<glyph unicode="&#xe603;" glyph-name="social-facebook" d="M554.667 512h128v-128h-128v-298.667h-128v298.667h-128v128h128v53.547c0 50.731 15.957 114.816 47.701 149.845 31.744 35.115 71.381 52.608 118.869 52.608h89.429v-128h-89.6c-21.248 0-38.4-17.152-38.4-38.357v-89.643z" />
<glyph unicode="&#xe604;" glyph-name="social-twitter" d="M805.973 639.488c34.475 21.163 57.301 50.048 68.48 86.784-33.536-17.792-66.944-29.995-100.309-36.736-29.995 32.256-67.968 48.64-113.493 48.64-44.501 0-82.091-15.616-112.768-45.995-30.507-30.592-45.909-67.755-45.909-111.147 0-13.184 1.664-24.96 4.992-34.944-131.243 4.48-239.872 58.923-325.461 163.712-14.507-25.643-21.76-51.755-21.76-78.763 0-55.509 23.424-99.499 70.187-131.797-26.667 2.261-50.176 9.003-70.187 20.053 0-39.637 11.648-72.747 34.987-101.888 23.424-28.843 53.504-47.232 90.24-55.083-13.312-3.413-27.349-5.035-41.771-5.035-13.312 0-22.741 1.109-28.331 3.541 9.813-32.299 28.331-58.496 55.083-78.549 26.667-20.139 57.344-30.763 91.819-31.701-56.832-44.587-121.813-66.645-195.328-66.645-18.005 0-30.763 0.256-38.485 1.621 72.405-47.019 153.003-70.357 242.176-70.357 91.264 0 171.904 23.125 242.091 69.376 70.187 45.995 121.984 102.741 155.264 169.557 33.451 66.731 50.005 136.192 50.005 208.725v19.968c32.341 24.32 58.496 51.712 78.507 81.963-29.013-12.501-59.008-20.992-90.027-25.301z" />
<glyph unicode="&#xe605;" glyph-name="close" d="M810.667 768q18.333 0 30.5-12.167t12.167-30.5q0-18-12.333-30.333l-268.667-268.333 268.667-268.333q12.333-12.333 12.333-30.333 0-18.333-12.167-30.5t-30.5-12.167q-18 0-30.333 12.333l-268.333 268.667-268.333-268.667q-12.333-12.333-30.333-12.333-18.333 0-30.5 12.167t-12.167 30.5q0 18 12.333 30.333l268.667 268.333-268.667 268.333q-12.333 12.333-12.333 30.333 0 18.333 12.167 30.5t30.5 12.167q18 0 30.333-12.333l268.333-268.667 268.333 268.667q12.333 12.333 30.333 12.333z" />
<glyph unicode="&#xe606;" glyph-name="arrow-right" d="M389.171 285.798c-13.722-13.875-13.722-36.301 0-50.125 13.67-13.875 35.891-13.875 49.613 0l196.096 200.038c13.722 13.875 13.722 36.301 0 50.125l-196.096 200.090c-13.722 13.875-35.891 13.875-49.613 0s-13.722-36.25-0.051-50.074l160.819-175.053-160.768-175.002z" />
<glyph unicode="&#xe607;" glyph-name="arrow-left" d="M634.829 285.798c13.722-13.875 13.722-36.301 0-50.125-13.722-13.875-35.891-13.875-49.613 0l-196.096 200.038c-13.722 13.875-13.722 36.301 0 50.125l196.096 200.090c13.722 13.875 35.891 13.875 49.613 0s13.722-36.25 0-50.125l-160.768-175.002 160.768-175.002z" />
<glyph unicode="&#xe608;" glyph-name="arrow-down" d="M687.002 583.629c13.875 13.722 36.301 13.722 50.125 0 13.875-13.722 13.875-35.891 0-49.613l-200.038-196.096c-13.875-13.722-36.301-13.722-50.125 0l-200.090 196.096c-13.824 13.722-13.824 35.891 0 49.613 13.875 13.722 36.25 13.722 50.125 0l175.002-160.768 175.002 160.768z" />
<glyph unicode="&#xe609;" glyph-name="arrow-up" d="M336.947 337.971c-13.875-13.722-36.25-13.722-50.125 0-13.824 13.722-13.875 35.891 0 49.664l200.090 195.994c13.875 13.722 36.301 13.722 50.125 0l200.090-196.045c13.875-13.773 13.875-35.942 0-49.664s-36.25-13.722-50.125 0l-175.053 160.819-175.002-160.768z" />
<glyph unicode="&#xe60a;" glyph-name="phone" horiz-adv-x="805" d="M804.571 242.286q0-15.429-5.714-40.286t-12-39.143q-12-28.571-69.714-60.571-53.714-29.143-106.286-29.143-15.429 0-30 2t-32.857 7.143-27.143 8.286-31.714 11.714-28 10.286q-56 20-100 47.429-73.143 45.143-151.143 123.143t-123.143 151.143q-27.429 44-47.429 100-1.714 5.143-10.286 28t-11.714 31.714-8.286 27.143-7.143 32.857-2 30q0 52.571 29.143 106.286 32 57.714 60.571 69.714 14.286 6.286 39.143 12t40.286 5.714q8 0 12-1.714 10.286-3.429 30.286-43.429 6.286-10.857 17.143-30.857t20-36.286 17.714-30.571q1.714-2.286 10-14.286t12.286-20.286 4-16.286q0-11.429-16.286-28.571t-35.429-31.429-35.429-30.286-16.286-26.286q0-5.143 2.857-12.857t4.857-11.714 8-13.714 6.571-10.857q43.429-78.286 99.429-134.286t134.286-99.429q1.143-0.571 10.857-6.571t13.714-8 11.714-4.857 12.857-2.857q10.286 0 26.286 16.286t30.286 35.429 31.429 35.429 28.571 16.286q8 0 16.286-4t20.286-12.286 14.286-10q14.286-8.571 30.571-17.714t36.286-20 30.857-17.143q40-20 43.429-30.286 1.714-4 1.714-12z" />
<glyph unicode="&#xe60e;" glyph-name="staff" horiz-adv-x="1126" d="M768 611.84c0-84.831-68.769-153.6-153.6-153.6s-153.6 68.769-153.6 153.6c0 84.831 68.769 153.6 153.6 153.6s153.6-68.769 153.6-153.6zM337.92 765.44c0-79.176-64.184-143.36-143.36-143.36s-143.36 64.184-143.36 143.36c0 79.176 64.184 143.36 143.36 143.36s143.36-64.184 143.36-143.36zM1075.2 181.76c0-113.108-91.692-204.8-204.8-204.8s-204.8 91.692-204.8 204.8c0 113.108 91.692 204.8 204.8 204.8s204.8-91.692 204.8-204.8z" />
<glyph unicode="&#xe612;" glyph-name="search" d="M1000.64 70.848l-184.896 184.896c50.688 72.576 80.64 160.704 80.64 255.936 0 247.424-200.64 448-448 448s-448-200.576-448-448c0-247.424 200.576-448 448-448 95.232 0 183.424 29.952 256 80.64l184.896-184.896c30.72-30.72 80.64-30.72 111.36 0s30.72 80.576 0 111.424zM448.32 191.616c-176.704 0-320 143.232-320 320s143.296 320 320 320c176.768 0 320-143.232 320-320 0.064-176.768-143.168-320-320-320z" />
<glyph unicode="&#xe61d;" glyph-name="envelope" d="M0 149.334c0-47.146 38.186-85.334 85.334-85.334h853.334c47.146 0 85.334 38.186 85.334 85.334l-0.002 576c0 47.146-38.186 85.334-85.334 85.334l-853.332-0.002c-47.146 0-85.334-38.186-85.334-85.334v-575.998zM314.026 436.694l-195.2 196.48c-16.192 16.214-16.192 42.454 0 58.666 16.234 16.214 42.474 16.214 58.666 0l311.468-311.872c12.586-12.374 33.302-12.374 45.674 0l311.872 311.872c16.214 16.214 42.454 16.214 58.666 0 16.214-16.214 16.214-42.454 0-58.666l-195.414-196.48 195.414-195.178c16.214-16.214 16.214-42.454 0-58.666s-42.454-16.214-58.666 0l-195.2 194.986c0 0-60.992-62.080-72.086-73.174-17.3-16.876-41.194-27.328-67.22-27.328-26.454 0-50.346 10.666-67.626 27.968-11.306 11.094-71.894 72.512-71.894 72.512l-195.008-194.986c-16.192-16.214-42.432-16.214-58.666 0-16.192 16.214-16.192 42.454 0 58.666l195.22 195.2z" />
<glyph unicode="&#xe900;" glyph-name="Artboard-16" d="M967.968 61.603l-232.026 232.779c56.758 64.751 91.382 150.139 91.382 243.614 0 0.157 0 0.314 0 0.47v-0.024c-4.2 210.469-175.808 379.477-386.889 379.477-1.876 0-3.75-0.013-5.62-0.040l0.283 0.003c-1.811 0.031-3.948 0.048-6.089 0.048-211.085 0-382.695-169.014-386.883-379.097l-0.006-0.391c4.194-210.474 175.804-379.488 386.889-379.488 2.141 0 4.278 0.017 6.41 0.052l-0.321-0.004c0.515-0.002 1.124-0.004 1.734-0.004 83.59 0 161.171 25.729 225.255 69.701l-1.356-0.879 233.531-234.659c9.425-8.98 22.212-14.505 36.289-14.505s26.864 5.525 36.311 14.525l-0.021-0.020c9.072 8.824 14.701 21.149 14.701 34.788 0 13.077-5.174 24.945-13.587 33.669l0.014-0.015zM435.097 818.979c1.359 0.023 2.962 0.036 4.568 0.036 156.081 0 282.979-124.951 286.119-280.281l0.005-0.293c-3.145-155.623-130.042-280.574-286.124-280.574-1.606 0-3.209 0.013-4.809 0.040l0.241-0.003c-1.359-0.023-2.962-0.036-4.568-0.036-156.081 0-282.979 124.951-286.119 280.281l-0.005 0.293c3.145 155.623 130.042 280.574 286.124 280.574 1.606 0 3.209-0.013 4.809-0.040l-0.241 0.003z" />
<glyph unicode="&#xe901;" glyph-name="Artboard-21" d="M788.244-28.171c-204.393 6.203-387.274 93.424-518.552 230.472l-0.256 0.269-2.866 3.225c-140.743 133.881-228.852 321.964-230.738 530.641l-0.002 0.348v13.973l8.599 10.749c13.009 16.35 26.138 30.956 40.082 44.74l0.047 0.046c48.123 48.151 105.983 86.565 170.375 112.036l3.397 1.185c7.714 2.973 16.64 4.695 25.968 4.695 0.822 0 1.641-0.013 2.456-0.040l-0.119 0.003c22.214 0 71.659-11.465 84.557-46.22 22.214-61.985 50.519-143.317 71.659-220.708 1.361-6.151 2.14-13.216 2.14-20.463 0-28.899-12.396-54.903-32.162-72.984l-0.075-0.068-71.659-45.861c0.366-8.714 2.711-16.803 6.593-23.935l-0.143 0.288c30.959-41.836 62.677-78.782 96.831-113.313l-0.092 0.093c34.2-33.853 70.914-65.34 109.773-94.093l2.73-1.93c6.197-4.887 13.97-8.034 22.45-8.593l0.122-0.006h3.941l44.070 71.659c17.896 19.667 43.596 31.962 72.168 31.962 1.333 0 2.66-0.027 3.98-0.080l-0.189 0.006c2.365 0.277 5.105 0.435 7.882 0.435s5.517-0.158 8.212-0.465l-0.33 0.031c85.263-16.908 160.698-41.676 231.78-74.297l-6.414 2.638c25.968-17.85 42.777-47.392 42.777-80.861 0-10.401-1.624-20.424-4.631-29.827l0.191 0.692c-26.593-67.632-64.883-125.368-112.868-173.419l0.006 0.006c-14.384-15.607-29.352-30.007-45.141-43.471l-0.72-0.599-10.749-8.241z" />
<glyph unicode="&#xe902;" glyph-name="Artboard-22" horiz-adv-x="1395" d="M464.945-46.821h-25.395v126.786c-0.273-1.017-0.592-1.886-0.977-2.718l0.043 0.104-59.192-124.172h-26.515l-59.005 123.985c-0.038 0.308-0.060 0.665-0.060 1.027s0.022 0.719 0.064 1.069l-0.004-0.042v5.042c-0.020 0.252-0.032 0.545-0.032 0.84s0.012 0.589 0.035 0.879l-0.002-0.038v-132.948h-27.635v168.053h21.1c1.029 0.181 2.215 0.285 3.424 0.285 2.875 0 5.613-0.585 8.102-1.643l-0.136 0.051c3.141-1.87 5.632-4.541 7.233-7.735l0.049-0.108 57.511-120.624c0.641-1.368 1.216-2.985 1.639-4.663l0.041-0.192c0.076-0.811 0.12-1.754 0.12-2.708s-0.044-1.896-0.129-2.827l0.009 0.12c0.197 3.755 1.071 7.257 2.502 10.456l-0.074-0.186 57.511 120.624c1.671 3.396 4.231 6.137 7.381 7.981l0.088 0.048c3.033 1.762 6.674 2.803 10.558 2.803 0.096 0 0.191-0.001 0.287-0.002h21.458zM537.581-46.821h-25.395v168.053h66.661c0.15 0.001 0.327 0.002 0.504 0.002 7.415 0 14.494-1.441 20.971-4.058l-0.376 0.134c6.629-2.554 12.328-6.092 17.229-10.501l-0.050 0.044c4.768-4.342 8.661-9.549 11.448-15.385l0.129-0.3c2.677-5.653 4.24-12.281 4.24-19.274 0-5.612-1.007-10.99-2.849-15.961l0.103 0.318c-1.963-5.229-4.615-9.743-7.905-13.709l0.063 0.078c-3.418-4.116-7.355-7.638-11.75-10.52l-0.2-0.123c-4.293-2.875-9.254-5.231-14.55-6.809l-0.388-0.099 58.071-71.889h-18.673c-0.231-0.006-0.503-0.010-0.776-0.010-4.516 0-8.807 0.966-12.677 2.703l0.196-0.079c-3.91 1.823-7.128 4.562-9.472 7.951l-0.051 0.078-48.175 59.565h-26.328zM537.581 98.637v-51.91h41.266c0.018 0 0.039 0 0.060 0 3.942 0 7.708 0.754 11.161 2.126l-0.205-0.072c3.465 1.37 6.439 3.265 8.981 5.619l-0.019-0.017c2.521 2.28 4.59 5.005 6.092 8.059l0.070 0.157c1.408 2.956 2.231 6.423 2.231 10.083s-0.823 7.127-2.293 10.228l0.062-0.145c-1.572 3.211-3.641 5.936-6.139 8.195l-0.023 0.021c-5.217 4.748-12.183 7.656-19.828 7.656-0.053 0-0.107 0-0.16 0h0.008zM784.245-46.821h-25.955v168.053h65.727c0.155 0.001 0.339 0.002 0.523 0.002 7.874 0 15.395-1.509 22.291-4.253l-0.407 0.143c7.208-2.776 13.403-6.631 18.725-11.436l-0.052 0.046c5.062-4.667 9.204-10.243 12.184-16.48l0.14-0.325c2.893-6.046 4.583-13.142 4.583-20.633s-1.69-14.587-4.71-20.928l0.126 0.295c-3.12-6.563-7.262-12.138-12.287-16.771l-0.037-0.034c-5.267-4.763-11.464-8.618-18.268-11.253l-0.404-0.138c-6.488-2.601-14.010-4.11-21.884-4.11-0.184 0-0.368 0.001-0.551 0.002h-39.744zM824.578 39.259c0.080-0.001 0.174-0.001 0.269-0.001 4.4 0 8.607 0.822 12.477 2.322l-0.236-0.080c3.967 1.553 7.374 3.7 10.295 6.371l-0.025-0.023c2.842 2.586 5.165 5.684 6.832 9.158l0.077 0.178c1.582 3.4 2.505 7.381 2.505 11.577s-0.923 8.177-2.577 11.75l0.072-0.173c-1.72 3.727-4.047 6.891-6.888 9.504l-0.021 0.019c-2.896 2.648-6.303 4.796-10.048 6.272l-0.222 0.077c-3.634 1.419-7.842 2.242-12.241 2.242-0.095 0-0.189 0-0.284-0.001h-40.319v-59.379zM1026.988-46.821h-113.902v168.053h113.902v-23.341h-88.134v-48.549h71.516v-22.967h-71.516v-50.229h88.134zM1091.034-46.821h-25.395v168.053h66.101c0.15 0.001 0.327 0.002 0.504 0.002 7.415 0 14.494-1.441 20.971-4.058l-0.376 0.134c6.629-2.554 12.328-6.092 17.229-10.501l-0.050 0.044c4.768-4.342 8.661-9.549 11.448-15.385l0.129-0.3c2.677-5.653 4.24-12.281 4.24-19.274 0-5.612-1.007-10.99-2.849-15.961l0.103 0.318c-1.963-5.229-4.615-9.743-7.905-13.709l0.063 0.078c-3.418-4.116-7.355-7.638-11.75-10.52l-0.2-0.123c-4.293-2.875-9.254-5.231-14.55-6.809l-0.388-0.099 58.632-72.449h-17.552c-0.231-0.006-0.503-0.010-0.776-0.010-4.516 0-8.807 0.966-12.677 2.703l0.196-0.079c-3.91 1.823-7.128 4.562-9.472 7.951l-0.051 0.078-48.175 60.125h-27.449zM1091.034 98.637v-51.91h40.519c0.018 0 0.039 0 0.060 0 3.942 0 7.708 0.754 11.161 2.126l-0.205-0.072c3.465 1.37 6.439 3.265 8.981 5.619l-0.019-0.017c2.521 2.28 4.59 5.005 6.092 8.059l0.070 0.157c1.355 2.906 2.145 6.309 2.145 9.896s-0.79 6.99-2.207 10.044l0.061-0.148c-1.572 3.211-3.641 5.936-6.139 8.195l-0.023 0.021c-5.217 4.748-12.183 7.656-19.828 7.656-0.053 0-0.107 0-0.16 0h0.008zM1246.95 19.279c-0.001-0.122-0.002-0.267-0.002-0.411 0-6.152 1.377-11.983 3.841-17.2l-0.104 0.246c2.626-5.554 6.143-10.266 10.421-14.159l0.036-0.032c4.37-3.979 9.512-7.202 15.164-9.408l0.334-0.115c5.545-2.15 11.963-3.396 18.673-3.396s13.127 1.246 19.035 3.519l-0.363-0.123c5.986 2.321 11.129 5.544 15.538 9.558l-0.039-0.035c4.313 3.925 7.831 8.637 10.341 13.921l0.116 0.27c2.359 4.984 3.736 10.829 3.736 16.995 0 0.13-0.001 0.261-0.002 0.391v-0.020 102.699h25.395v-102.699c0.004-0.266 0.006-0.579 0.006-0.893 0-6.341-0.958-12.459-2.737-18.216l0.116 0.437c-1.896-6.185-4.436-11.572-7.624-16.5l0.155 0.255c-3.364-5.178-7.188-9.654-11.519-13.58l-0.057-0.051c-4.358-4.007-9.259-7.539-14.551-10.448l-0.387-0.195c-5.093-2.805-10.994-5.17-17.197-6.789l-0.542-0.12c-5.886-1.526-12.644-2.402-19.606-2.402s-13.72 0.876-20.169 2.524l0.562-0.122c-6.745 1.741-12.646 4.106-18.146 7.113l0.407-0.204c-5.679 3.104-10.58 6.636-14.992 10.692l0.054-0.049c-4.393 3.974-8.217 8.451-11.418 13.37l-0.159 0.261c-3.038 4.673-5.579 10.060-7.347 15.786l-0.122 0.459c-1.663 5.328-2.62 11.455-2.62 17.805 0 0.305 0.002 0.609 0.007 0.913l-0.001-0.046v102.699h25.395zM1309.503 140.277c-3.362-3.282-7.964-5.307-13.039-5.307-0.603 0-1.199 0.029-1.787 0.084l0.075-0.006h-9.523q14.191 21.473 15.685 22.78c3.362 3.282 7.964 5.307 13.039 5.307 0.603 0 1.199-0.029 1.787-0.084l-0.075 0.006h14.565zM465.505 439.971v0l-81.972 306.229c-33.387 107.959-127.728 186.899-241.858 197.104l-1.071 0.077c-8.216 0.747-16.058 1.12-24.274 1.12-34.174-0.004-66.908-6.165-97.154-17.433l1.924 0.628c84.1-31.454 147.936-99.771 172.602-184.746l0.492-1.979c0-2.801 1.494-5.602 2.241-8.589l74.69-282.702 3.548-13.071c33.425-107.828 127.662-186.666 241.667-196.917l1.075-0.078c7.842 0 15.685-1.12 23.714-1.12 0.156 0 0.341 0 0.526 0 34.185 0 66.931 6.161 97.188 17.434l-1.924-0.628c-82.989 31.48-146.032 98.877-170.909 182.689l-0.505 1.982zM710.489 439.971v0l-81.972 306.229c-33.364 107.906-127.618 186.823-241.665 197.103l-1.077 0.078c-7.842 0-15.872 1.12-24.088 1.12-34.174-0.004-66.908-6.165-97.154-17.433l1.924 0.628c84.1-31.454 147.936-99.771 172.602-184.746l0.492-1.979c0-2.801 1.494-5.602 2.241-8.589l74.69-282.702 3.548-13.071c33.425-107.828 127.662-186.666 241.667-196.917l1.075-0.078c7.842 0 15.685-1.12 23.714-1.12 0.156 0 0.341 0 0.526 0 34.185 0 66.931 6.161 97.188 17.434l-1.924-0.628c-83.142 31.386-146.33 98.806-171.281 182.689l-0.506 1.982zM955.659 439.971v0l-81.972 306.229c-33.364 107.906-127.618 186.823-241.665 197.103l-1.077 0.078c-7.842 0-15.872 1.12-24.088 1.12-34.174-0.004-66.908-6.165-97.154-17.433l1.924 0.628c84.1-31.454 147.936-99.771 172.602-184.746l0.492-1.979c0-2.801 1.494-5.602 2.241-8.589l74.69-282.702 3.921-12.511c33.241-108.062 127.53-187.139 241.661-197.476l1.081-0.079c7.842 0 15.685-1.12 23.714-1.12 0.156 0 0.341 0 0.526 0 34.185 0 66.931 6.161 97.188 17.434l-1.924-0.628c-83.294 31.292-146.628 98.734-171.653 182.689l-0.507 1.982zM1201.575 439.971v0l-6.535 26.515v2.614l-5.228 17.739c-24.92-11.209-54.019-17.739-84.643-17.739-0.046 0-0.091 0-0.137 0h-102.318l5.228-18.673 3.548-13.071c33.425-107.828 127.662-186.666 241.667-196.917l1.075-0.078c7.842 0 15.685-1.12 23.714-1.12 0.156 0 0.341 0 0.526 0 34.185 0 66.931 6.161 97.188 17.434l-1.924-0.628c-83.142 31.146-146.426 98.292-171.647 181.941l-0.514 1.983zM923.542 761.698h200.916c16.036 0 29.036-13 29.036-29.036s-13-29.036-29.036-29.036v0h-184.111l49.295-182.43h109.981c116.841 0 211.559 94.718 211.559 211.559s-94.718 211.559-211.559 211.559v0h-342.454c77.117-28.009 137.99-105.686 166.372-182.617z" />
<glyph unicode="&#xe903;" glyph-name="Artboard-23" d="M636.057 447.765l369.111 370.994c19.774 19.774 8.004 63.559-25.894 97.927s-78.154 43.314-97.927 24.482l-369.111-369.582-370.994 369.582c-18.361 18.832-62.146 8.004-94.161-28.248s-47.080-75.8-28.248-94.161l369.111-369.111-369.111-370.994c-18.832-19.774-8.004-63.559 28.248-97.927s78.154-47.080 97.927-25.894l369.111 369.111 369.111-369.111c19.774-19.774 63.559-8.004 97.927 25.894s47.080 78.154 25.894 97.927z" />
<glyph unicode="&#xe904;" glyph-name="Artboard-26-copy" horiz-adv-x="1449" d="M711.243 936.186c39.73-0.231 75.107-18.668 98.241-47.384l0.19-0.244 579.473-722.357c17.348-21.541 27.845-49.234 27.845-79.38 0-70.179-56.891-127.070-127.070-127.070-40.033 0-75.742 18.513-99.034 47.445l-0.191 0.245-476.279 598.524-455.64-581.060c-23.595-29.546-59.615-48.311-100.019-48.311-70.522 0-127.691 57.169-127.691 127.691 0 30.118 10.428 57.801 27.869 79.636l-0.197-0.256 554.071 704.893c24.585 27.28 59.21 45.099 98.005 47.606l0.426 0.022z" />
<glyph unicode="&#xe905;" glyph-name="Artboard-26" horiz-adv-x="1449" d="M736.645-40.186c-0.727-0.015-1.583-0.023-2.442-0.023-40.007 0-75.693 18.498-98.973 47.407l-0.191 0.245-574.71 723.944c-17.348 21.541-27.845 49.234-27.845 79.38 0 70.179 56.891 127.070 127.070 127.070 40.033 0 75.742-18.513 99.034-47.445l0.191-0.245 476.279-598.524 454.053 579.473c23.595 29.546 59.615 48.311 100.019 48.311 70.522 0 127.691-57.169 127.691-127.691 0-30.118-10.428-57.801-27.869-79.636l0.197 0.256-552.484-704.893c-24.945-27.63-60.206-45.537-99.662-47.613l-0.357-0.015z" />
<glyph unicode="&#xe906;" glyph-name="Artboard-27" horiz-adv-x="1098" d="M690.955-9.018h329.193c0.001 0 0.002 0 0.003 0 10.321 0 18.711 8.268 18.908 18.543v331.662c-0.197 10.293-8.587 18.561-18.908 18.561-0.001 0-0.002 0-0.003 0h-151.639c-0.113-0.002-0.246-0.004-0.38-0.004-9.883 0-17.961 7.724-18.529 17.464l-0.002 0.050c-3.152 70.041-2.802 325.341 175.103 358.61 9.007 1.384 15.861 8.961 16.109 18.185l0.001 0.025v132.728c-0.324 10.191-8.663 18.329-18.902 18.329-0.743 0-1.477-0.043-2.198-0.126l0.088 0.008c-56.733-5.603-215.026-40.974-303.278-260.553-53.581-133.078-39.223-315.185-43.425-634.922 0.174-9.938 7.988-17.996 17.81-18.559l0.050-0.002zM77.746-9.018h329.193c0.001 0 0.002 0 0.003 0 10.321 0 18.711 8.268 18.908 18.543v331.662c-0.197 10.293-8.587 18.561-18.908 18.561-0.001 0-0.002 0-0.003 0h-151.639c-0.113-0.002-0.246-0.004-0.38-0.004-9.883 0-17.961 7.724-18.529 17.464l-0.002 0.050c-3.152 70.041-2.802 325.341 175.103 358.61 9.007 1.384 15.861 8.961 16.109 18.185l0.001 0.025v132.728c-0.324 10.191-8.663 18.329-18.902 18.329-0.743 0-1.477-0.043-2.198-0.126l0.088 0.008c-58.134-5.253-216.427-40.624-304.679-260.202-53.581-133.078-39.223-315.185-43.425-634.922 0-0.001 0-0.002 0-0.003 0-10.444 8.467-18.911 18.911-18.911 0.123 0 0.246 0.001 0.369 0.004h-0.018z" />
<glyph unicode="&#xe907;" glyph-name="Artboard-29" horiz-adv-x="478" d="M420.115 448.241h-114.314v-419.633h-157.724v419.633h-105.149v144.701h105.149v84.891c0 118.172 31.834 189.558 170.747 189.558h115.278v-144.701h-71.868c-54.022 0-56.433-20.258-56.433-57.88v-72.35h128.301z" />
<glyph unicode="&#xe908;" glyph-name="Artboard-30" horiz-adv-x="1455" d="M1354.68 844.555c-50.222 58.048-139.577 82.181-311.113 82.181h-630.054c-177.406 0-269.371-25.437-318.288-87.399s-47.613-150.013-47.613-270.675v-238.716c0-239.368 56.744-360.683 365.901-360.683h630.054c150.013 0 233.498 20.871 286.981 72.397s78.92 138.925 78.92 288.285v238.716c-1.957 130.446-5.218 217.192-54.787 275.893zM920.948 415.389l-285.676-149.361c-6.193-3.57-13.619-5.676-21.538-5.676-24.134 0-43.699 19.565-43.699 43.699 0 0.39 0.005 0.78 0.015 1.168l-0.001-0.057v297.417c-0.009 0.331-0.014 0.72-0.014 1.111 0 24.134 19.565 43.699 43.699 43.699 7.918 0 15.345-2.106 21.75-5.789l-0.212 0.113 285.676-148.056c14.135-7.43 23.61-22.013 23.61-38.808s-9.475-31.377-23.371-38.693l-0.239-0.115z" />
<glyph unicode="&#xe909;" glyph-name="Artboard-31" d="M672.847 448c0-88.833-72.014-160.847-160.847-160.847s-160.847 72.014-160.847 160.847c0 88.833 72.014 160.847 160.847 160.847s160.847-72.014 160.847-160.847zM725.873 924.649h-427.158c-145.452 0-263.365-117.912-263.365-263.365v0-427.158c0-145.452 117.912-263.365 263.365-263.365v0h427.158c145.452 0 263.365 117.912 263.365 263.365v0 427.158c0 145.452-117.912 263.365-263.365 263.365v0zM512 202.311c-135.69 0-245.689 109.999-245.689 245.689s109.999 245.689 245.689 245.689c135.69 0 245.689-109.999 245.689-245.689v0c0-135.69-109.999-245.689-245.689-245.689v0zM811.894 659.517c-11.181-11.108-26.588-17.974-43.599-17.974-34.167 0-61.864 27.698-61.864 61.864s27.698 61.864 61.864 61.864c34.167 0 61.864-27.698 61.864-61.864 0-0.102 0-0.204-0.001-0.306v0.016c-0.151-17.038-7.101-32.424-18.265-43.6l0.001 0.001z" />
<glyph unicode="&#xe90a;" glyph-name="Artboard-32" horiz-adv-x="1335" d="M998.521 500.777h-443.45v-147.412h270.559c-41.682-129.521-161.117-221.597-302.057-221.597-174.888 0-316.664 141.775-316.664 316.664s141.775 316.664 316.664 316.664c87.992 0 167.602-35.889 224.99-93.828l0.024-0.025 107.374 116.474c-85.484 83.297-202.423 134.672-331.361 134.672-262.333 0-474.995-212.663-474.995-474.995 0-261.955 212.051-474.383 473.862-474.994h0.058c0.307-0.001 0.672-0.001 1.036-0.001 231.054 0 424.395 161.468 473.341 377.72l0.618 3.248zM1286.673 500.777h-90.995v90.995h-77.649v-90.995h-90.995v-77.649h90.995v-90.995h77.649v90.995h90.995z" />
<glyph unicode="&#xe90b;" glyph-name="Artboard-33" horiz-adv-x="1072" d="M1024.573 342.622v-361.378h-209.611v336.752c0 84.761-30.353 142.604-105.951 142.604-49.533-0.204-91.629-31.816-107.419-75.943l-0.25-0.799c-4.454-13.255-7.023-28.519-7.023-44.384 0-2.317 0.055-4.621 0.163-6.911l-0.012 0.324v-351.642h-209.611s0 572.707 0 629.978h209.611v-89.342c36.552 62.841 103.576 104.414 180.31 104.414 3.054 0 6.093-0.066 9.114-0.196l-0.431 0.015c138.022 0 241.11-89.915 241.11-283.49zM166.085 914.756c-3.353 0.365-7.241 0.573-11.179 0.573-60.413 0-109.387-48.974-109.387-109.387s48.974-109.387 109.387-109.387c3.937 0 7.826 0.208 11.656 0.614l-0.477-0.041c3.353-0.365 7.241-0.573 11.179-0.573 60.413 0 109.387 48.974 109.387 109.387s-48.974 109.387-109.387 109.387c-3.937 0-7.826-0.208-11.656-0.614l0.477 0.041zM57.271-18.756h211.902v629.978h-211.902z" />
<glyph unicode="&#xe90c;" glyph-name="Artboard-34" d="M914.178 681.183c-41.291 70.547-98.448 127.704-166.816 167.813l-2.179 1.182c-65.909 39.398-145.382 62.693-230.296 62.693-1.015 0-2.029-0.003-3.043-0.010l0.156 0.001c-0.858 0.006-1.872 0.009-2.887 0.009-84.914 0-164.387-23.295-232.377-63.843l2.081 1.15c-70.561-41.272-127.723-98.434-167.814-166.816l-1.181-2.179c-39.398-65.909-62.693-145.382-62.693-230.296 0-1.015 0.003-2.029 0.010-3.043l-0.001 0.156c-0.011-1.186-0.018-2.588-0.018-3.992 0-93.902 28.677-181.106 77.752-253.332l-1.009 1.575c49.25-74.401 117.384-132.707 197.66-168.82l2.927-1.178c-0.458 7.179-0.72 15.567-0.72 24.017 0 29.502 3.184 58.26 9.228 85.949l-0.485-2.651 59.675 250.735c-9.555 20.005-15.136 43.479-15.136 68.258 0 1.919 0.033 3.831 0.1 5.734l-0.008-0.276c-0.049 1.378-0.077 2.997-0.077 4.623 0 30.461 9.805 58.632 26.431 81.529l-0.277-0.401c13.9 20.783 37.182 34.349 63.648 34.601h0.038c0.987 0.061 2.14 0.096 3.301 0.096 17.347 0 32.873-7.794 43.267-20.072l0.068-0.083c10.338-12.957 16.589-29.573 16.589-47.649 0-0.879-0.015-1.754-0.044-2.625l0.003 0.127c-0.5-16.439-3.031-32.081-7.351-46.962l0.33 1.328q-7.021-27.079-18.053-62.182t-16.047-56.666c-1.577-5.487-2.483-11.79-2.483-18.305 0-16.279 5.662-31.236 15.124-43.008l-0.104 0.134c13.698-16.028 33.933-26.124 56.526-26.124 0.931 0 1.858 0.017 2.78 0.051l-0.133-0.004c47.352 2.013 87.533 30.756 106.001 71.447l0.311 0.765c26.3 47.591 41.776 104.334 41.776 164.691 0 3.63-0.056 7.246-0.167 10.849l0.013-0.527c0.105 2.246 0.165 4.88 0.165 7.527 0 47.399-19.228 90.307-50.31 121.349l-0.002 0.002c-34.61 31.305-80.723 50.462-131.309 50.462-3.908 0-7.789-0.114-11.64-0.34l0.532 0.025c-2.548 0.106-5.537 0.166-8.541 0.166-121.583 0-220.145-98.562-220.145-220.145 0-0.94 0.006-1.879 0.018-2.816l-0.001 0.143c-0.036-1.183-0.057-2.574-0.057-3.971 0-33.235 11.757-63.725 31.339-87.536l-0.191 0.239c4.63-4.922 7.475-11.568 7.475-18.88 0-2.56-0.349-5.039-1.001-7.391l0.046 0.194s0-8.525-5.015-18.053l-5.015-18.554q-5.015-19.557-23.068-12.035c-31.259 13.237-55.986 36.828-70.352 66.387l-0.355 0.81c-15.225 30.798-24.131 67.055-24.131 105.392 0 1.91 0.022 3.816 0.066 5.715l-0.005-0.282c0.085 29.068 4.85 56.993 13.579 83.103l-0.541-1.865c10.217 29.131 23.975 54.372 41.114 76.902l-0.495-0.679c19.055 25.638 41.057 47.64 65.854 66.096l0.842 0.599c26.663 19.759 57.657 35.661 91.081 46.050l2.192 0.587c34.541 11.142 74.28 17.566 115.52 17.566 1.17 0 2.339-0.005 3.506-0.015l-0.178 0.001c1.516 0.027 3.305 0.042 5.097 0.042 54.768 0 106.234-14.138 150.948-38.964l-1.592 0.811c43.532-23.918 78.854-57.954 103.62-99.068l0.685-1.226c22.634-36.898 36.058-81.566 36.106-129.365v-0.014c0.030-1.846 0.047-4.025 0.047-6.208 0-56.776-11.634-110.835-32.649-159.922l1.009 2.651c-20.132-45.939-51.178-83.908-89.965-111.782l-0.8-0.547c-35.428-26.021-79.904-41.641-128.028-41.641-1.004 0-2.007 0.007-3.007 0.020l0.152-0.002c-0.407-0.004-0.887-0.007-1.368-0.007-24.843 0-48.211 6.317-68.586 17.431l0.751-0.375c-18.699 8.948-33.785 22.906-43.873 40.145l-0.256 0.474-32.595-127.875c-11.585-38.184-27.638-71.468-47.98-101.618l0.842 1.325c39.693-12.285 85.326-19.36 132.61-19.36 170.606 0 319.7 92.104 400.271 229.301l1.183 2.18c39.091 65.753 62.196 144.971 62.196 229.585 0 1.265-0.005 2.529-0.015 3.791l0.001-0.193c0.009 1.069 0.014 2.333 0.014 3.598 0 84.614-23.105 163.832-63.351 231.688l1.154-2.103z" />
<glyph unicode="&#xe90d;" glyph-name="Artboard-36" horiz-adv-x="826" d="M413.234 211.922v0c-8.028 0-14.536 6.508-14.536 14.536v0 327.057c0 8.028 6.508 14.536 14.536 14.536v0c8.028 0 14.536-6.508 14.536-14.536v-327.057c0-8.028-6.508-14.536-14.536-14.536v0zM413.234 211.922c-0.062-0.001-0.135-0.001-0.208-0.001-3.963 0-7.555 1.586-10.177 4.157l-125.11 125.11c-2.212 2.537-3.56 5.876-3.56 9.53 0 8.028 6.508 14.536 14.536 14.536 3.654 0 6.994-1.349 9.548-3.575l-0.017 0.015 114.73-114.73 114.989 116.027c2.537 2.212 5.876 3.56 9.53 3.56 8.028 0 14.536-6.508 14.536-14.536 0-3.654-1.349-6.994-3.575-9.548l0.015 0.017-125.112-125.112c-2.408-3.067-5.998-5.113-10.072-5.448l-0.051-0.003zM729.908-34.669h-633.608c-40.028 0.148-72.42 32.63-72.42 72.679 0 0 0 0 0 0v0 819.979c0.147 39.937 32.483 72.273 72.406 72.42h460.23c8.028 0 14.536-6.508 14.536-14.536s-6.508-14.536-14.536-14.536h-460.216c-0.232 0.004-0.505 0.007-0.779 0.007-23.995 0-43.464-19.38-43.607-43.341v-820.252c0.143-23.975 19.612-43.355 43.607-43.355 0.274 0 0.548 0.003 0.82 0.008l-0.041-0.001h633.608c24.084 0 43.608 19.524 43.608 43.608v0 640.097c0 8.028 6.508 14.536 14.536 14.536s14.536-6.508 14.536-14.536v0-640.357c0 0 0 0 0 0 0-39.996-32.423-72.42-72.42-72.42-0.091 0-0.182 0-0.274 0.001h0.014zM788.052 663.832h-231.536c-8.028 0-14.536 6.508-14.536 14.536v0 231.276c0 8.028 6.508 14.536 14.536 14.536s14.536-6.508 14.536-14.536v0-217h217c8.028 0 14.536-6.508 14.536-14.536s-6.508-14.536-14.536-14.536v0zM788.052 663.832c-4.073 0.014-7.749 1.701-10.379 4.409l-0.003 0.004-232.574 237.506c-2.146 2.517-3.451 5.808-3.451 9.403 0 8.028 6.508 14.536 14.536 14.536 3.725 0 7.123-1.401 9.695-3.705l-0.014 0.012 231.536-237.765c2.539-2.614 4.105-6.186 4.105-10.123 0-8.011-6.48-14.508-14.485-14.536h-0.003z" />
<glyph unicode="&#xe90e;" glyph-name="Artboard-37" d="M1007.759 489.009h-453.938v454.75h-82.83v-454.75h-454.75v-82.83h454.75v-453.938h82.83v453.938h453.938v82.83z" />
<glyph unicode="&#xe90f;" glyph-name="Artboard-38" horiz-adv-x="1455" d="M1356.917 846.092c-49.321 58.716-140.33 82.202-314.128 82.202h-631.78c-176.147 0-269.505-27.009-318.239-85.725s-48.147-152.073-48.147-276.55v-234.862c0-240.147 58.716-362.275 366.972-362.275h631.193c150.899 0 234.862 21.138 288.294 72.807s78.092 138.569 78.092 288.294v234.862c0 132.11 0 222.532-52.257 281.248zM634.716 265.982c-5.956-3.206-13.033-5.089-20.551-5.089-24.252 0-43.926 19.605-44.036 43.831v298.286c-0.001 0.117-0.002 0.255-0.002 0.393 0 24.321 19.716 44.037 44.037 44.037 7.518 0 14.596-1.884 20.788-5.206l-0.236 0.115 286.532-148.55c14.179-7.508 23.674-22.168 23.674-39.046s-9.495-31.538-23.435-38.93l-0.239-0.116z" />
<glyph unicode="&#xe911;" glyph-name="a-left" d="M394.291 432.486c0 12.39 5.632 24.115 15.36 31.898l233.574 186.368c17.613 14.080 43.315 11.162 57.344-6.451 14.080-17.715 11.11-43.366-6.451-57.344l-193.178-154.112 187.341-146.33c17.766-13.875 20.941-39.526 7.066-57.242-13.875-17.766-39.526-20.941-57.242-7.066l-228.045 178.125c-9.984 7.731-14.336 20.275-15.77 32.154z" />
<glyph unicode="&#xe912;" glyph-name="a-right" d="M709.478 440.73c0-12.39-5.632-24.115-15.36-31.898l-233.574-186.368c-17.613-14.080-43.315-11.162-57.344 6.451-14.080 17.715-11.11 43.366 6.451 57.344l193.178 154.112-187.341 146.33c-17.766 13.875-20.941 39.526-7.066 57.242 13.875 17.766 39.526 20.941 57.242 7.066l228.045-178.125c9.984-7.68 14.336-20.275 15.77-32.154z" />
<glyph unicode="&#xe913;" glyph-name="filter-filled-tool-symbol" d="M390.027 476.121c10.746-11.694 16.646-26.97 16.646-42.773v-465.653c0-28.025 33.818-42.247 53.835-22.545l129.898 148.861c17.383 20.86 26.97 31.185 26.97 51.833v287.398c0 15.803 6.005 31.079 16.646 42.774l372.732 404.443c27.918 30.341 6.427 79.54-34.871 79.54h-919.717c-41.298 0-62.895-49.094-34.871-79.54l372.734-404.338z" />
<glyph unicode="&#xe914;" glyph-name="descargar" horiz-adv-x="827" d="M765.44 714.24l-171.52 174.080v-174.080zM555.52 634.88c-23.040 0-40.96 17.92-40.96 40.96v227.84c0 7.68 2.56 15.36 5.12 20.48h-419.84c-38.4 0-71.68-33.28-71.68-71.68v-808.96c0-38.4 33.28-71.68 71.68-71.68h624.64c38.4 0 71.68 33.28 71.68 71.68v593.92c-5.12-2.56-10.24-2.56-15.36-2.56h-225.28zM565.76 325.12l-122.88-122.88c-2.56-2.56-7.68-7.68-12.8-7.68-5.12-2.56-10.24-2.56-15.36-2.56s-10.24 0-15.36 2.56c-5.12 2.56-7.68 5.12-7.68 5.12s0 0 0 0-2.56 0-5.12 2.56l-122.88 122.88c-15.36 15.36-15.36 40.96 0 56.32s40.96 15.36 56.32 0l56.32-56.32v225.28c0 23.040 17.92 40.96 40.96 40.96s40.96-17.92 40.96-40.96v-225.28l56.32 56.32c15.36 15.36 40.96 15.36 56.32 0s10.24-40.96-5.12-56.32z" />
</font>
</defs>
</svg>
